<svg width="32" height="32" viewBox="0 0 32 32" fill="none" xmlns="http://www.w3.org/2000/svg">
<g id="bell">
<path id="bell_2" d="M7.91406 22.375H12.0525C12.1228 24.2835 13.6897 26.0514 16 26.0514C18.3002 26.0514 19.8772 24.3036 19.9576 22.375H24.0859C25.1306 22.375 25.7734 21.8025 25.7734 20.9386C25.7734 19.8639 24.7991 18.9498 23.885 18.0759C23.1719 17.3828 23.0011 15.9967 22.8705 14.5804C22.7299 10.7935 21.615 8.26229 19.0033 7.3181C18.6116 5.98216 17.4967 4.96765 16 4.96765C14.5033 4.96765 13.3884 5.98216 13.0067 7.3181C10.385 8.26229 9.28013 10.7935 9.12946 14.5804C8.99888 15.9967 8.82812 17.3828 8.11496 18.0759C7.20089 18.9498 6.22656 19.8639 6.22656 20.9386C6.22656 21.8025 6.86942 22.375 7.91406 22.375ZM8.67746 20.5067V20.3862C8.93862 20.0949 9.52121 19.5625 10.0134 19C10.7065 18.2065 11.0279 16.74 11.1283 14.8315C11.2489 10.8036 12.4944 9.44756 14.1016 9.01564C14.3527 8.94533 14.4833 8.82479 14.5033 8.55359C14.5536 7.53908 15.1261 6.85604 16 6.85604C16.8839 6.85604 17.4464 7.53908 17.4967 8.55359C17.5167 8.82479 17.6574 8.94533 17.8984 9.01564C19.5156 9.44756 20.7511 10.8036 20.8717 14.8315C20.9821 16.74 21.3036 18.2065 21.9866 19C22.4788 19.5625 23.0413 20.0949 23.3025 20.3862V20.5067H8.67746ZM16 24.4342C14.865 24.4342 14.0513 23.6206 13.981 22.375H18.029C17.9688 23.6105 17.1451 24.4342 16 24.4342Z" fill="white"/>
</g>
</svg>
